<mxfile host="Electron" modified="2023-06-03T01:20:26.628Z" agent="Mozilla/5.0 (Windows NT 10.0; Win64; x64) AppleWebKit/537.36 (KHTML, like Gecko) draw.io/21.2.8 Chrome/112.0.5615.165 Electron/24.2.0 Safari/537.36" etag="ZIwJgbErV0LlqeWbk_Qf" version="21.2.8" type="device">
  <diagram name="Página-1" id="jmDzwANW4qJA5nXzOvKP">
    <mxGraphModel dx="1354" dy="664" grid="1" gridSize="10" guides="1" tooltips="1" connect="1" arrows="1" fold="1" page="1" pageScale="1" pageWidth="827" pageHeight="1169" math="0" shadow="0">
      <root>
        <mxCell id="0" />
        <mxCell id="1" parent="0" />
        <mxCell id="jKdDpH5kDZpJ2cXiWnHA-3" style="edgeStyle=orthogonalEdgeStyle;rounded=0;orthogonalLoop=1;jettySize=auto;html=1;" edge="1" parent="1" source="jKdDpH5kDZpJ2cXiWnHA-1">
          <mxGeometry relative="1" as="geometry">
            <mxPoint x="170" y="100" as="targetPoint" />
          </mxGeometry>
        </mxCell>
        <mxCell id="jKdDpH5kDZpJ2cXiWnHA-1" value="" style="shape=waypoint;sketch=0;fillStyle=solid;size=6;pointerEvents=1;points=[];fillColor=none;resizable=0;rotatable=0;perimeter=centerPerimeter;snapToPoint=1;" vertex="1" parent="1">
          <mxGeometry x="160" y="60" width="20" height="20" as="geometry" />
        </mxCell>
        <mxCell id="jKdDpH5kDZpJ2cXiWnHA-5" style="edgeStyle=orthogonalEdgeStyle;rounded=0;orthogonalLoop=1;jettySize=auto;html=1;" edge="1" parent="1">
          <mxGeometry relative="1" as="geometry">
            <mxPoint x="170" y="370" as="targetPoint" />
            <mxPoint x="170" y="290" as="sourcePoint" />
          </mxGeometry>
        </mxCell>
        <mxCell id="jKdDpH5kDZpJ2cXiWnHA-41" style="edgeStyle=orthogonalEdgeStyle;rounded=0;orthogonalLoop=1;jettySize=auto;html=1;" edge="1" parent="1" source="jKdDpH5kDZpJ2cXiWnHA-4" target="jKdDpH5kDZpJ2cXiWnHA-37">
          <mxGeometry relative="1" as="geometry" />
        </mxCell>
        <mxCell id="jKdDpH5kDZpJ2cXiWnHA-42" style="edgeStyle=orthogonalEdgeStyle;rounded=0;orthogonalLoop=1;jettySize=auto;html=1;entryX=0.5;entryY=0;entryDx=0;entryDy=0;" edge="1" parent="1" source="jKdDpH5kDZpJ2cXiWnHA-4" target="jKdDpH5kDZpJ2cXiWnHA-38">
          <mxGeometry relative="1" as="geometry" />
        </mxCell>
        <mxCell id="jKdDpH5kDZpJ2cXiWnHA-4" value="Cadastro/login na plataforma ESTUDA" style="rounded=0;whiteSpace=wrap;html=1;" vertex="1" parent="1">
          <mxGeometry x="95" y="100" width="150" height="60" as="geometry" />
        </mxCell>
        <mxCell id="jKdDpH5kDZpJ2cXiWnHA-6" value="" style="endArrow=none;html=1;rounded=0;" edge="1" parent="1">
          <mxGeometry width="50" height="50" relative="1" as="geometry">
            <mxPoint x="130" y="370" as="sourcePoint" />
            <mxPoint x="200" y="370" as="targetPoint" />
          </mxGeometry>
        </mxCell>
        <mxCell id="jKdDpH5kDZpJ2cXiWnHA-7" value="" style="endArrow=classic;html=1;rounded=0;" edge="1" parent="1">
          <mxGeometry width="50" height="50" relative="1" as="geometry">
            <mxPoint x="195" y="370" as="sourcePoint" />
            <mxPoint x="370" y="408" as="targetPoint" />
            <Array as="points">
              <mxPoint x="195" y="408" />
            </Array>
          </mxGeometry>
        </mxCell>
        <mxCell id="jKdDpH5kDZpJ2cXiWnHA-9" value="Se sim" style="text;html=1;align=center;verticalAlign=middle;resizable=0;points=[];autosize=1;strokeColor=none;fillColor=none;" vertex="1" parent="1">
          <mxGeometry x="300" y="380" width="60" height="30" as="geometry" />
        </mxCell>
        <mxCell id="jKdDpH5kDZpJ2cXiWnHA-10" value="Se não" style="text;html=1;align=center;verticalAlign=middle;resizable=0;points=[];autosize=1;strokeColor=none;fillColor=none;" vertex="1" parent="1">
          <mxGeometry x="160" y="500" width="60" height="30" as="geometry" />
        </mxCell>
        <mxCell id="jKdDpH5kDZpJ2cXiWnHA-12" value="&lt;span style=&quot;color: rgb(0, 0, 0); font-family: Helvetica; font-size: 12px; font-style: normal; font-variant-ligatures: normal; font-variant-caps: normal; font-weight: 400; letter-spacing: normal; orphans: 2; text-align: center; text-indent: 0px; text-transform: none; widows: 2; word-spacing: 0px; -webkit-text-stroke-width: 0px; background-color: rgb(251, 251, 251); text-decoration-thickness: initial; text-decoration-style: initial; text-decoration-color: initial; float: none; display: inline !important;&quot;&gt;[Possui Cadastro?]&lt;/span&gt;" style="text;whiteSpace=wrap;html=1;" vertex="1" parent="1">
          <mxGeometry x="170" y="310" width="110" height="20" as="geometry" />
        </mxCell>
        <mxCell id="jKdDpH5kDZpJ2cXiWnHA-13" value="" style="endArrow=classic;html=1;rounded=0;" edge="1" parent="1">
          <mxGeometry width="50" height="50" relative="1" as="geometry">
            <mxPoint x="140" y="370" as="sourcePoint" />
            <mxPoint x="230" y="530" as="targetPoint" />
            <Array as="points">
              <mxPoint x="140" y="530" />
            </Array>
          </mxGeometry>
        </mxCell>
        <mxCell id="jKdDpH5kDZpJ2cXiWnHA-27" style="edgeStyle=orthogonalEdgeStyle;rounded=0;orthogonalLoop=1;jettySize=auto;html=1;" edge="1" parent="1" source="jKdDpH5kDZpJ2cXiWnHA-14">
          <mxGeometry relative="1" as="geometry">
            <mxPoint x="540" y="412.5" as="targetPoint" />
          </mxGeometry>
        </mxCell>
        <mxCell id="jKdDpH5kDZpJ2cXiWnHA-14" value="Fazer login" style="rounded=0;whiteSpace=wrap;html=1;" vertex="1" parent="1">
          <mxGeometry x="374" y="385" width="120" height="55" as="geometry" />
        </mxCell>
        <mxCell id="jKdDpH5kDZpJ2cXiWnHA-24" style="edgeStyle=orthogonalEdgeStyle;rounded=0;orthogonalLoop=1;jettySize=auto;html=1;entryX=0;entryY=0.5;entryDx=0;entryDy=0;" edge="1" parent="1" source="jKdDpH5kDZpJ2cXiWnHA-16" target="jKdDpH5kDZpJ2cXiWnHA-21">
          <mxGeometry relative="1" as="geometry" />
        </mxCell>
        <mxCell id="jKdDpH5kDZpJ2cXiWnHA-16" value="Fazer cadastro" style="rounded=0;whiteSpace=wrap;html=1;" vertex="1" parent="1">
          <mxGeometry x="230" y="500" width="120" height="60" as="geometry" />
        </mxCell>
        <mxCell id="jKdDpH5kDZpJ2cXiWnHA-25" style="edgeStyle=orthogonalEdgeStyle;rounded=0;orthogonalLoop=1;jettySize=auto;html=1;entryX=0.5;entryY=1;entryDx=0;entryDy=0;" edge="1" parent="1" source="jKdDpH5kDZpJ2cXiWnHA-21" target="jKdDpH5kDZpJ2cXiWnHA-14">
          <mxGeometry relative="1" as="geometry" />
        </mxCell>
        <mxCell id="jKdDpH5kDZpJ2cXiWnHA-21" value="Processo de analise de dados" style="rounded=0;whiteSpace=wrap;html=1;" vertex="1" parent="1">
          <mxGeometry x="374" y="500" width="120" height="60" as="geometry" />
        </mxCell>
        <mxCell id="jKdDpH5kDZpJ2cXiWnHA-28" value="" style="endArrow=none;html=1;rounded=0;" edge="1" parent="1">
          <mxGeometry width="50" height="50" relative="1" as="geometry">
            <mxPoint x="545" y="457.5" as="sourcePoint" />
            <mxPoint x="545" y="367.5" as="targetPoint" />
          </mxGeometry>
        </mxCell>
        <mxCell id="jKdDpH5kDZpJ2cXiWnHA-30" value="" style="endArrow=classic;html=1;rounded=0;" edge="1" parent="1">
          <mxGeometry width="50" height="50" relative="1" as="geometry">
            <mxPoint x="545" y="385" as="sourcePoint" />
            <mxPoint x="605" y="330" as="targetPoint" />
            <Array as="points">
              <mxPoint x="605" y="385" />
            </Array>
          </mxGeometry>
        </mxCell>
        <mxCell id="jKdDpH5kDZpJ2cXiWnHA-31" value="Acesso aos documentos" style="rounded=0;whiteSpace=wrap;html=1;" vertex="1" parent="1">
          <mxGeometry x="545" y="270" width="120" height="60" as="geometry" />
        </mxCell>
        <mxCell id="jKdDpH5kDZpJ2cXiWnHA-44" style="edgeStyle=orthogonalEdgeStyle;rounded=0;orthogonalLoop=1;jettySize=auto;html=1;" edge="1" parent="1" source="jKdDpH5kDZpJ2cXiWnHA-37">
          <mxGeometry relative="1" as="geometry">
            <mxPoint x="220" y="290" as="targetPoint" />
          </mxGeometry>
        </mxCell>
        <mxCell id="jKdDpH5kDZpJ2cXiWnHA-37" value="Aluno" style="rounded=0;whiteSpace=wrap;html=1;" vertex="1" parent="1">
          <mxGeometry x="185" y="220" width="70" height="30" as="geometry" />
        </mxCell>
        <mxCell id="jKdDpH5kDZpJ2cXiWnHA-45" style="edgeStyle=orthogonalEdgeStyle;rounded=0;orthogonalLoop=1;jettySize=auto;html=1;" edge="1" parent="1" source="jKdDpH5kDZpJ2cXiWnHA-38">
          <mxGeometry relative="1" as="geometry">
            <mxPoint x="122.5" y="290" as="targetPoint" />
          </mxGeometry>
        </mxCell>
        <mxCell id="jKdDpH5kDZpJ2cXiWnHA-38" value="Professor" style="rounded=0;whiteSpace=wrap;html=1;" vertex="1" parent="1">
          <mxGeometry x="90" y="220" width="65" height="30" as="geometry" />
        </mxCell>
        <mxCell id="jKdDpH5kDZpJ2cXiWnHA-39" value="" style="endArrow=none;html=1;rounded=0;" edge="1" parent="1">
          <mxGeometry width="50" height="50" relative="1" as="geometry">
            <mxPoint x="105" y="290" as="sourcePoint" />
            <mxPoint x="235" y="290" as="targetPoint" />
          </mxGeometry>
        </mxCell>
        <mxCell id="jKdDpH5kDZpJ2cXiWnHA-46" value="" style="endArrow=classic;html=1;rounded=0;" edge="1" parent="1">
          <mxGeometry width="50" height="50" relative="1" as="geometry">
            <mxPoint x="545" y="422.5" as="sourcePoint" />
            <mxPoint x="605" y="470" as="targetPoint" />
            <Array as="points">
              <mxPoint x="605" y="422.5" />
            </Array>
          </mxGeometry>
        </mxCell>
        <mxCell id="jKdDpH5kDZpJ2cXiWnHA-47" value="Comentar e pedir ajuda" style="rounded=0;whiteSpace=wrap;html=1;" vertex="1" parent="1">
          <mxGeometry x="550" y="470" width="110" height="50" as="geometry" />
        </mxCell>
      </root>
    </mxGraphModel>
  </diagram>
</mxfile>
